<?xml version="1.0" encoding="UTF-8" standalone="no"?> <svg xmlns="http://www.w3.org/2000/svg" viewBox="0 0 313.75 293.12"><defs><style>.cls-1{fill:#26a9e0;}.cls-2{fill:#be1e2d;}.cls-3{fill:#58595b;}.cls-4{fill:#fdf1f1;}.cls-5{fill:#f05a28;}.cls-6{fill:#8bc53f;}.cls-7{fill:#1b75bb;}</style></defs><g id="Layer_2" data-name="Layer 2"><g id="Layer_1-2" data-name="Layer 1"><g id="setting"><path class="cls-1" d="M301.35,82.32a53.86,53.86,0,0,0-5.92-17.15,54.37,54.37,0,0,0-27.22-24.25A54.08,54.08,0,0,0,249.65,37c-.61,0-1.21,0-1.82,0a54.5,54.5,0,0,0-7.16.47,53.77,53.77,0,0,0-19,6.27,53.13,53.13,0,0,0-7.48,5,54.11,54.11,0,0,0-20.57,42.53c0,.52,0,1,0,1.54a53,53,0,0,0,1,9,53.8,53.8,0,0,0,7.65,18.93,54.21,54.21,0,0,0,29.82,22.49,54.27,54.27,0,0,0,15.76,2.32c1.1,0,2.19,0,3.27-.1a53.09,53.09,0,0,0,9-1.29,53.64,53.64,0,0,0,17-7.19,54.13,54.13,0,0,0,25-45.59v-.08A54.32,54.32,0,0,0,301.35,82.32Zm-53.52,49.39a40.5,40.5,0,1,1,40.49-40.5A40.5,40.5,0,0,1,247.83,131.71Z"/><rect class="cls-1" x="240.67" y="28.29" width="8.97" height="16.01"/><rect class="cls-1" x="212.63" y="35.78" width="8.97" height="16.01" transform="translate(7.19 114.42) rotate(-30)"/><rect class="cls-1" x="193.49" y="59.79" width="8.97" height="16.01" transform="translate(40.28 205.36) rotate(-60)"/><rect class="cls-1" x="188.4" y="89.23" width="8.97" height="16.01" transform="translate(95.65 290.13) rotate(-90)"/><rect class="cls-1" x="198.71" y="117.28" width="8.97" height="16.01" transform="translate(196.3 363.9) rotate(-120)"/><rect class="cls-1" x="221.66" y="136.41" width="8.97" height="16.01" transform="translate(349.79 382.55) rotate(-150)"/><rect class="cls-1" x="251.1" y="140.09" width="8.97" height="16.01" transform="translate(511.18 296.2) rotate(-180)"/><rect class="cls-1" x="278.44" y="129.43" width="8.97" height="16.01" transform="translate(596.67 115) rotate(150)"/><rect class="cls-1" x="294.75" y="107.19" width="8.97" height="16.01" transform="translate(548.62 -86.36) rotate(120)"/><rect class="cls-1" x="301.26" y="78.8" width="8.97" height="16.01" transform="translate(392.55 -218.94) rotate(90)"/><rect class="cls-1" x="291.65" y="50.76" width="8.97" height="16.01" transform="translate(198.96 -227.08) rotate(60)"/><rect class="cls-1" x="268.87" y="33" width="8.97" height="16.01" transform="translate(57.69 -131.89) rotate(30.19)"/><path class="cls-2" d="M169.45,185.78a78.61,78.61,0,0,0-15.84-35.87,79.42,79.42,0,0,0-20.71-18.46,80.32,80.32,0,0,0-11.67-5.91,78.5,78.5,0,0,0-27-5.71c-.88,0-1.76,0-2.65,0a79.1,79.1,0,0,0-38.11,9.8,78.82,78.82,0,0,0-40.81,69.13c0,.75,0,1.5,0,2.24a78.55,78.55,0,0,0,12.59,40.59A77.58,77.58,0,0,0,33.32,252a79.17,79.17,0,0,0,23.07,17.42,77.67,77.67,0,0,0,12.26,4.87,78.5,78.5,0,0,0,22.92,3.39c1.61,0,3.2-.05,4.77-.14a78.85,78.85,0,0,0,74.17-78.67v-.12A78.79,78.79,0,0,0,169.45,185.78ZM91.57,257.63a58.92,58.92,0,1,1,58.92-58.92A58.92,58.92,0,0,1,91.57,257.63Z"/><rect class="cls-2" x="81.17" y="107.17" width="13.06" height="23.29"/><rect class="cls-2" x="40.36" y="118.07" width="13.06" height="23.29" transform="translate(-58.57 40.82) rotate(-30)"/><rect class="cls-2" x="12.53" y="153" width="13.06" height="23.29" transform="translate(-133.06 98.83) rotate(-60)"/><rect class="cls-2" x="5.12" y="195.83" width="13.06" height="23.29" transform="translate(-195.83 219.12) rotate(-90)"/><rect class="cls-2" x="20.12" y="236.63" width="13.06" height="23.29" transform="translate(-175.05 395.49) rotate(-120)"/><rect class="cls-2" x="53.51" y="264.47" width="13.06" height="23.29" transform="translate(-26.03 545.25) rotate(-150)"/><rect class="cls-2" x="96.34" y="269.83" width="13.06" height="23.29" transform="translate(205.74 562.95) rotate(-180)"/><rect class="cls-2" x="136.12" y="254.32" width="13.06" height="23.29" transform="translate(399.16 424.97) rotate(150)"/><rect class="cls-2" x="159.85" y="221.95" width="13.06" height="23.29" transform="matrix(-0.5, 0.87, -0.87, -0.5, 451.87, 206.31)"/><rect class="cls-2" x="169.31" y="180.66" width="13.06" height="23.29" transform="translate(368.14 16.46) rotate(90)"/><rect class="cls-2" x="155.34" y="139.86" width="13.06" height="23.29" transform="translate(212.14 -64.43) rotate(60)"/><rect class="cls-2" x="122.18" y="114.02" width="13.06" height="23.29" transform="translate(80.64 -47.68) rotate(30.19)"/><path class="cls-3" d="M147.58,39.58a39.62,39.62,0,0,0-8-18.06,39.9,39.9,0,0,0-10.43-9.29,38.61,38.61,0,0,0-5.88-3,39.66,39.66,0,0,0-13.6-2.88l-1.33,0a41.18,41.18,0,0,0-5.24.34,39.55,39.55,0,0,0-13.95,4.59,40.46,40.46,0,0,0-5.48,3.65,39.88,39.88,0,0,0-9.81,11.39,39.2,39.2,0,0,0-2.8,6,39.72,39.72,0,0,0-2.46,13.8c0,.38,0,.75,0,1.13a39.69,39.69,0,0,0,39.72,38.61c.81,0,1.61,0,2.4-.07a39.33,39.33,0,0,0,19.06-6.21,40.35,40.35,0,0,0,5.26-4,39.65,39.65,0,0,0,13-29.36v-.06A39.9,39.9,0,0,0,147.58,39.58ZM108.37,75.76A29.67,29.67,0,1,1,138,46.09,29.67,29.67,0,0,1,108.37,75.76Z"/><rect class="cls-3" x="103.13" width="6.57" height="11.73"/><rect class="cls-3" x="82.59" y="5.49" width="6.57" height="11.73" transform="translate(5.83 44.46) rotate(-30)"/><rect class="cls-3" x="68.57" y="23.07" width="6.57" height="11.73" transform="translate(10.87 76.7) rotate(-60)"/><rect class="cls-3" x="64.84" y="44.64" width="6.57" height="11.73" transform="translate(17.62 118.63) rotate(-90)"/><rect class="cls-3" x="72.39" y="65.19" width="6.57" height="11.73" transform="translate(51.99 172.11) rotate(-120)"/><rect class="cls-3" x="89.2" y="79.2" width="6.57" height="11.73" transform="translate(130.06 204.98) rotate(-150)"/><rect class="cls-3" x="110.77" y="81.9" width="6.57" height="11.73" transform="translate(228.12 175.53) rotate(-180)"/><rect class="cls-3" x="130.8" y="74.09" width="6.57" height="11.73" transform="translate(290.19 82.15) rotate(150)"/><rect class="cls-3" x="142.75" y="57.79" width="6.57" height="11.73" transform="matrix(-0.5, 0.87, -0.87, -0.5, 274.18, -30.98)"/><rect class="cls-3" x="147.51" y="37" width="6.57" height="11.73" transform="translate(193.67 -107.94) rotate(90)"/><rect class="cls-3" x="140.48" y="16.46" width="6.57" height="11.73" transform="translate(91.21 -113.34) rotate(60)"/><rect class="cls-3" x="123.78" y="3.45" width="6.57" height="11.73" transform="translate(21.92 -62.63) rotate(30.19)"/><rect class="cls-4" x="77.48" y="202.33" width="13.84" height="30.23"/><rect class="cls-4" x="114.86" y="167.74" width="13.84" height="64.82"/><rect class="cls-4" x="96.17" y="183.76" width="13.84" height="48.8"/><rect class="cls-4" x="58.78" y="218.72" width="13.84" height="13.84"/><rect class="cls-2" x="58.78" y="225.64" width="13.84" height="6.92"/><rect class="cls-5" x="77.48" y="213.53" width="13.84" height="19.03"/><rect class="cls-6" x="96.17" y="194.5" width="13.84" height="38.05"/><rect class="cls-7" x="114.86" y="176.93" width="13.84" height="55.63"/><path class="cls-3" d="M262.57,220.27a27.07,27.07,0,0,0-5.48-12.4,27.45,27.45,0,0,0-7.16-6.38,26.25,26.25,0,0,0-4-2,27.1,27.1,0,0,0-9.34-2h-.91a28.52,28.52,0,0,0-3.6.23,27.07,27.07,0,0,0-13.34,5.66,27.22,27.22,0,0,0-10.35,21.39c0,.26,0,.52,0,.77a27.09,27.09,0,0,0,4.35,14,26.26,26.26,0,0,0,2.78,3.61,27.09,27.09,0,0,0,12.21,7.7,27,27,0,0,0,7.93,1.17c.55,0,1.1,0,1.64-.05a26.75,26.75,0,0,0,4.52-.65,27.29,27.29,0,0,0,17.79-13.51,26.17,26.17,0,0,0,1.84-4.15,27.17,27.17,0,0,0,1.49-8.88v0A27.42,27.42,0,0,0,262.57,220.27Zm-26.92,24.84A20.37,20.37,0,1,1,256,224.74,20.37,20.37,0,0,1,235.65,245.11Z"/><rect class="cls-3" x="232.05" y="193.1" width="4.51" height="8.05"/><rect class="cls-3" x="217.95" y="196.86" width="4.51" height="8.05" transform="translate(-70.94 137.01) rotate(-30)"/><rect class="cls-3" x="208.32" y="208.94" width="4.51" height="8.05" transform="translate(-79.14 288.85) rotate(-60)"/><rect class="cls-3" x="205.76" y="223.74" width="4.51" height="8.05" transform="translate(-19.75 435.79) rotate(-90)"/><rect class="cls-3" x="210.95" y="237.85" width="4.51" height="8.05" transform="translate(110.33 547.45) rotate(-120)"/><rect class="cls-3" x="222.49" y="247.47" width="4.51" height="8.05" transform="translate(293.63 581.67) rotate(-150)"/><rect class="cls-3" x="237.29" y="249.32" width="4.51" height="8.05" transform="translate(479.1 506.7) rotate(-180)"/><rect class="cls-3" x="251.04" y="243.96" width="4.51" height="8.05" transform="translate(596.66 336.1) rotate(150)"/><rect class="cls-3" x="259.25" y="232.77" width="4.51" height="8.05" transform="translate(597.33 128.73) rotate(120)"/><rect class="cls-3" x="262.52" y="218.5" width="4.51" height="8.05" transform="translate(487.3 -42.25) rotate(90)"/><rect class="cls-3" x="257.69" y="204.39" width="4.51" height="8.05" transform="translate(310.47 -120.91) rotate(60)"/><rect class="cls-3" x="246.23" y="195.47" width="4.51" height="8.05" transform="translate(134.01 -97.89) rotate(30.19)"/></g></g></g></svg>